<?xml version="1.0" encoding="utf-8"?><svg xmlns="http://www.w3.org/2000/svg" xmlns:xlink="http://www.w3.org/1999/xlink"><symbol viewBox="0 0 18.164 13.922" id="check" xmlns="http://www.w3.org/2000/svg"><path d="M17.836 3.516L9.352 12l-1.594 1.594a1.136 1.136 0 0 1-1.594 0L4.57 12 .328 7.758a1.136 1.136 0 0 1 0-1.594L1.922 4.57a1.136 1.136 0 0 1 1.594 0l3.445 3.457L14.649.328a1.132 1.132 0 0 1 1.593 0l1.594 1.594a1.136 1.136 0 0 1 0 1.594z"/></symbol><symbol viewBox="0 0 14.137 15.422" id="login" xmlns="http://www.w3.org/2000/svg"><path d="M11.456 15.422H2.681C1.084 15.422 0 14.448 0 12.821c0-2.269.532-5.753 3.474-5.753.312 0 1.627 1.396 3.595 1.396s3.283-1.396 3.595-1.396c2.941 0 3.474 3.484 3.474 5.753-.001 1.627-1.085 2.601-2.682 2.601zM7.068 7.711A3.856 3.856 0 1 1 7.069 0a3.856 3.856 0 0 1-.001 7.711z"/></symbol><symbol viewBox="0 0 16.897 15.984" id="password" xmlns="http://www.w3.org/2000/svg"><path d="M15.743 12.078c-.261 0-1.074-.943-1.285-1.154l-.964.964 2.209 2.209a.973.973 0 0 1 .281.683c0 .563-.643 1.205-1.205 1.205a.978.978 0 0 1-.683-.281L7.359 8.966c-1.054.783-2.339 1.315-3.664 1.315C1.506 10.281 0 8.765 0 6.586 0 3.293 3.293 0 6.586 0c2.18 0 3.695 1.506 3.695 3.695 0 1.325-.532 2.61-1.315 3.665l3.564 3.564.964-.964c-.211-.211-1.154-1.024-1.154-1.285 0-.231.924-1.155 1.154-1.155.08 0 .171.041.23.101.372.372 3.173 3.012 3.173 3.303 0 .23-.923 1.154-1.154 1.154zM6.426 1.928a1.928 1.928 0 0 0-1.928 1.928c0 .291.07.572.19.833a1.973 1.973 0 0 0-.833-.191 1.928 1.928 0 1 0 1.928 1.928c0-.291-.07-.572-.19-.833.261.121.542.191.833.191a1.928 1.928 0 0 0 0-3.856z"/></symbol></svg>